PathFileType	4	(X/Y/Z)	/Users/rkoike/Documents/python/sports2d/webcam_20250611_152632/webcam_20250611_152632_px_person03.trc
DataRate	CameraRate	NumFrames	NumMarkers	Units	OrigDataRate	OrigDataStartFrame	OrigNumFrames
30	30	9	22	m	30	931	2485
Frame#	Time	Hip			RHip			RKnee			RAnkle			RBigToe			RSmallToe			RHeel			LHip			LKnee			LAnkle			LBigToe			LSmallToe			LHeel			Neck			Head			Nose			RShoulder			RElbow			RWrist			LShoulder			LElbow			LWrist			
		X1	Y1	Z1	X2	Y2	Z2	X3	Y3	Z3	X4	Y4	Z4	X5	Y5	Z5	X6	Y6	Z6	X7	Y7	Z7	X8	Y8	Z8	X9	Y9	Z9	X10	Y10	Z10	X11	Y11	Z11	X12	Y12	Z12	X13	Y13	Z13	X14	Y14	Z14	X15	Y15	Z15	X16	Y16	Z16	X17	Y17	Z17	X18	Y18	Z18	X19	Y19	Z19	X20	Y20	Z20	X21	Y21	Z21	X22	Y22	Z22
931	31.04582662372517	747.5306824171813	473.33325680647044	0.0	899.3044344721768	508.99891694772987	0.0	947.8873323653013	687.4303229785392	0.0	1230.904239140746	571.7464220969824	0.0	1317.7905273437502	232.90283203124991	0.0	1430.2939453124998	723.90380859375	0.0	295.9752197265625	714.5662918090821	0.0	620.0698844314352	496.2177139080851	0.0	631.5356090357461	707.8902596327264	0.0	1197.686266733003	580.1908667009051	0.0	535.6230850219727	724.3080749511719	0.0	523.9329452514648	722.359718322754	0.0	488.8625259399414	718.463005065918	0.0	808.7137545984234	23.409849834535787	0.0	1232.749349268722	106.8564868101428	0.0	1247.155342105776	69.0563617739827	0.0	1077.9547740283908	-10.102979690527606	0.0	1129.5382855617916	202.1225798362776	0.0	1096.3203453644062	535.8217395975391	0.0	534.9056014959782	-3.114351854782832	0.0	488.64487831988873	232.58609246999475	0.0	561.8347030974193	495.01747662752234	0.0
932	31.07917337627482	753.6551466478019	478.6432666588158	0.0	901.2346538324092	515.1411504419832	0.0	958.1346501577907	693.2477238681663	0.0	1222.6235380926323	577.2523692027154	0.0	1317.7905273437505	232.90283203124963	0.0	1430.2939453124998	723.90380859375	0.0	295.9752197265625	714.5662918090821	0.0	623.4795623451345	501.2466293868673	0.0	684.2609298368566	709.1532361231823	0.0	1192.1719759241307	585.4850561220296	0.0	535.6230850219727	724.3080749511719	0.0	523.9329452514648	722.359718322754	0.0	488.8625259399414	718.463005065918	0.0	807.9616597159905	10.915768254734312	0.0	1234.0054018496783	101.0468348832803	0.0	1247.1553421057756	69.05636177398247	0.0	1079.6332629737508	-10.663857035794251	0.0	1132.5405082686846	205.53884704277883	0.0	1098.1212922112607	539.121386176186	0.0	533.3535721421209	-6.544396102159228	0.0	488.6003988770706	230.17375758996147	0.0	562.524939429858	494.80094982491255	0.0
933	31.11252012882447	760.3153429632117	487.917019201637	0.0	901.8705525661169	521.8854543465376	0.0	991.577998835706	700.0869059144624	0.0	1187.7941261847377	600.4109035555933	0.0	1317.7905273437505	232.90283203124972	0.0	1430.2939453125	723.90380859375	0.0	295.9752197265625	714.5662918090821	0.0	625.624986782712	508.5453206250374	0.0	796.2835895242969	708.2493042986396	0.0	1168.9783471665896	607.7529176225685	0.0	535.6230850219727	724.3080749511719	0.0	523.9329452514648	722.359718322754	0.0	488.8625259399414	718.463005065918	0.0	815.0788776002145	-13.466148424998257	0.0	1236.0369729077352	97.10889600231164	0.0	1247.1553421057752	69.05636177398206	0.0	1087.2147891014831	-11.105509669723668	0.0	1134.4416565147335	207.88195942978749	0.0	1101.9087207446298	546.2810720764508	0.0	535.998683174224	-14.41723985060426	0.0	489.7778950877722	226.60739940141144	0.0	565.9939541768939	496.6626559335498	0.0
934	31.145866881374122	765.6704704120767	492.65916129663486	0.0	903.782111396032	523.2592438691611	0.0	1018.1807045503366	705.3728176553684	0.0	1137.4292798472961	633.8991527160299	0.0	1317.7905273437495	232.90283203125128	0.0	1430.2939453124998	723.90380859375	0.0	295.9752197265625	714.5662918090821	0.0	626.2076463785161	511.88548012279614	0.0	859.2831320647101	706.6459635430218	0.0	1135.439349968752	639.953215052335	0.0	535.6230850219727	724.3080749511719	0.0	523.9329452514648	722.359718322754	0.0	488.8625259399414	718.463005065918	0.0	819.484876378289	-30.133896411099634	0.0	1238.6370217216465	96.96760778060964	0.0	1247.1553421057758	69.05636177398245	0.0	1087.212660047349	-13.711663907688429	0.0	1136.075420401815	208.73944763549056	0.0	1104.0039131495328	548.453063564896	0.0	541.4145769744442	-21.237687007343474	0.0	493.2348628408232	226.79372365261304	0.0	570.9441306946984	499.0847351320961	0.0
935	31.179213633923773	766.1074415954196	490.2658067553411	0.0	906.3711939354625	519.5604101305028	0.0	1006.2979447689722	705.8574622909018	0.0	1102.599867939402	657.0576870689072	0.0	1317.7905273437475	232.90283203125395	0.0	1430.2939453124998	723.90380859375	0.0	295.9752197265625	714.5662918090821	0.0	627.3131424332098	510.66216498127943	0.0	793.8048026356536	705.2309470515647	0.0	1112.2457212112115	662.2210765528735	0.0	535.6230850219727	724.3080749511719	0.0	523.9329452514648	722.359718322754	0.0	488.8625259399414	718.463005065918	0.0	813.5255258227907	-20.56069784306393	0.0	1242.1811246340985	98.7482444896034	0.0	1247.15534210578	69.05636177398524	0.0	1078.8388478077525	-14.931674776964623	0.0	1137.0589906394841	207.62994024470916	0.0	1102.2922003222143	545.0875484708374	0.0	541.9818855337143	-18.499146010270795	0.0	495.5290450487452	231.62578046125944	0.0	573.5323521478438	499.63928621900607	0.0
936	31.212560386473427	761.2929030775765	487.1466738054043	0.0	906.667187653705	517.076330495302	0.0	974.6340052299909	702.180595072173	0.0	1094.3191668912878	662.5636341746407	0.0	1317.7905273437495	232.90283203125094	0.0	1430.2939453124998	723.90380859375	0.0	295.9752197265625	714.5662918090821	0.0	628.8629914033747	509.26055892148617	0.0	685.7319572045734	704.4410306803844	0.0	1106.7314304023384	667.5152659739986	0.0	535.6230850219727	724.3080749511719	0.0	523.9329452514648	722.359718322754	0.0	488.8625259399414	718.463005065918	0.0	807.4032409092877	3.8563741920887433	0.0	1245.5467855570164	100.47146468934511	0.0	1247.155342105785	69.05636177398857	0.0	1075.417270154746	-11.922256054965391	0.0	1136.208120109745	205.0956779366713	0.0	1100.1614426206932	545.8117049621256	0.0	537.6668826782598	-8.988762666312786	0.0	494.08962455973153	235.6333530033515	0.0	572.9329459951782	498.69886346249683	0.0
937	31.24590713902308	755.6728960379376	487.9145328627893	0.0	905.0266413513008	517.5136039471789	0.0	960.8060627318814	698.5462522306052	0.0	1098.079367264473	660.0634274600882	0.0	1317.7905273437632	232.90283203123155	0.0	1430.2939453125	723.90380859375	0.0	295.9752197265625	714.5662918090821	0.0	628.8739989226638	509.5256611666345	0.0	637.4920099539912	704.0840792899872	0.0	1109.2354259260128	665.1112167369416	0.0	535.6230850219727	724.3080749511719	0.0	523.9329452514648	722.359718322754	0.0	488.8625259399414	718.463005065918	0.0	809.449598923672	19.43018400482559	0.0	1246.6835219370057	101.07191687856908	0.0	1247.1553421057727	69.05636177398057	0.0	1078.267570935744	-8.402448031019375	0.0	1134.6228642620777	203.9354992918336	0.0	1099.7828025202514	553.7318880025733	0.0	535.270220944255	-2.3027099457306885	0.0	490.69130303470905	236.24317033250043	0.0	573.534313177113	497.1551111548925	0.0
938	31.27925389157273	753.6735530256854	489.97389695369156	0.0	904.316616813461	518.2611486099723	0.0	967.9972878699544	697.7992217387522	0.0	1101.0903556237151	658.0613816736725	0.0	1317.7905273437782	232.90283203121047	0.0	1430.2939453124998	723.90380859375	0.0	295.9752197265625	714.5662918090821	0.0	626.9967558521321	510.0256519000458	0.0	639.0135825547658	703.9116148789233	0.0	1111.2405056093037	663.1861692529188	0.0	535.6230850219727	724.3080749511719	0.0	523.9329452514648	722.359718322754	0.0	488.8625259399414	718.463005065918	0.0	811.8450413700953	19.997442180082317	0.0	1244.5405608944234	100.35542549727842	0.0	1247.1553421057247	69.05636177394851	0.0	1077.2708081405185	-8.07216838087878	0.0	1134.4312372043373	206.76366841046993	0.0	1098.8797981963205	559.9822476454207	0.0	535.4530961905036	-1.3085619627335632	0.0	487.9662351368562	236.8093334736361	0.0	576.2324306675001	495.2609843876153	0.0
939	31.31260064412238	756.0606196729373	490.1712487537455	0.0	905.3057077136119	518.7519981181883	0.0	972.86945532862	699.473142809389	0.0	1101.466691939548	657.8111507044631	0.0	1317.7905273437366	232.90283203126958	0.0	1430.2939453124998	723.90380859375	0.0	295.9752197265625	714.5662918090821	0.0	625.5757951069187	510.17643481101936	0.0	648.0491693154909	704.9452997760823	0.0	1111.491115778107	662.9455621194734	0.0	535.6230850219727	724.3080749511719	0.0	523.9329452514648	722.359718322754	0.0	488.8625259399414	718.463005065918	0.0	808.155385324013	13.353948292430033	0.0	1240.1630541810528	98.83698173111698	0.0	1247.1553421056963	69.05636177392886	0.0	1072.3721931827897	-9.083593218167278	0.0	1134.5191112618259	211.46747566067305	0.0	1096.8148901549464	557.7981601050775	0.0	533.5166222078399	-1.7275870053258917	0.0	487.593450606959	239.74368366885216	0.0	575.6295693396055	495.8428029812298	0.0
